<svg width="26" height="27" viewBox="0 0 26 27" fill="none" xmlns="http://www.w3.org/2000/svg">
<path d="M13.3874 0.0703125C6.43588 0.0703125 0.816406 6.06371 0.816406 13.4778C0.816406 20.8918 6.43588 26.9296 13.3874 26.9296C20.3389 26.9296 26 20.8918 26 13.4778C26 6.06371 20.3389 0.0703125 13.3874 0.0703125ZM13.3874 24.9318C7.47653 24.9318 2.68957 19.7819 2.68957 13.4778C2.68957 7.1736 7.47653 2.06811 13.3874 2.06811C19.2982 2.06811 24.1268 7.21799 24.1268 13.5222C24.1268 19.7819 19.2982 24.9318 13.3874 24.9318Z" fill="#59D1AE"/>
<path d="M16.9668 9.34884L12.0134 14.4987L9.76559 12.1458C9.39095 11.7462 8.80819 11.7906 8.43356 12.1458C8.05893 12.5453 8.10056 13.1669 8.43356 13.5664L11.0976 16.3189C11.3474 16.5853 11.6804 16.7185 12.0134 16.7185C12.3464 16.7185 12.6794 16.5853 12.9291 16.3189L18.2989 10.8139C18.6735 10.4143 18.6735 9.79279 18.2989 9.39323C17.9242 8.99367 17.3415 8.99367 16.9668 9.34884Z" fill="#59D1AE"/>
</svg>
